<svg id="visual" viewBox="0 0 2000 1000" width="2000" height="1000" xmlns="http://www.w3.org/2000/svg" xmlns:xlink="http://www.w3.org/1999/xlink" version="1.1"><rect x="0" y="0" width="2000" height="1000" fill="#000000"></rect><defs><linearGradient id="grad1_0" x1="50%" y1="0%" x2="100%" y2="100%"><stop offset="10%" stop-color="#79de6a" stop-opacity="1"></stop><stop offset="90%" stop-color="#79de6a" stop-opacity="1"></stop></linearGradient></defs><defs><linearGradient id="grad1_1" x1="50%" y1="0%" x2="100%" y2="100%"><stop offset="10%" stop-color="#79de6a" stop-opacity="1"></stop><stop offset="90%" stop-color="#58be4c" stop-opacity="1"></stop></linearGradient></defs><defs><linearGradient id="grad1_2" x1="50%" y1="0%" x2="100%" y2="100%"><stop offset="10%" stop-color="#349e2e" stop-opacity="1"></stop><stop offset="90%" stop-color="#58be4c" stop-opacity="1"></stop></linearGradient></defs><defs><linearGradient id="grad1_3" x1="50%" y1="0%" x2="100%" y2="100%"><stop offset="10%" stop-color="#349e2e" stop-opacity="1"></stop><stop offset="90%" stop-color="#007f0b" stop-opacity="1"></stop></linearGradient></defs><defs><linearGradient id="grad1_4" x1="50%" y1="0%" x2="100%" y2="100%"><stop offset="10%" stop-color="#006200" stop-opacity="1"></stop><stop offset="90%" stop-color="#007f0b" stop-opacity="1"></stop></linearGradient></defs><defs><linearGradient id="grad1_5" x1="50%" y1="0%" x2="100%" y2="100%"><stop offset="10%" stop-color="#006200" stop-opacity="1"></stop><stop offset="90%" stop-color="#004500" stop-opacity="1"></stop></linearGradient></defs><defs><linearGradient id="grad1_6" x1="50%" y1="0%" x2="100%" y2="100%"><stop offset="10%" stop-color="#002b00" stop-opacity="1"></stop><stop offset="90%" stop-color="#004500" stop-opacity="1"></stop></linearGradient></defs><defs><linearGradient id="grad1_7" x1="50%" y1="0%" x2="100%" y2="100%"><stop offset="10%" stop-color="#002b00" stop-opacity="1"></stop><stop offset="90%" stop-color="#000000" stop-opacity="1"></stop></linearGradient></defs><defs><linearGradient id="grad2_0" x1="0%" y1="0%" x2="50%" y2="100%"><stop offset="10%" stop-color="#79de6a" stop-opacity="1"></stop><stop offset="90%" stop-color="#79de6a" stop-opacity="1"></stop></linearGradient></defs><defs><linearGradient id="grad2_1" x1="0%" y1="0%" x2="50%" y2="100%"><stop offset="10%" stop-color="#58be4c" stop-opacity="1"></stop><stop offset="90%" stop-color="#79de6a" stop-opacity="1"></stop></linearGradient></defs><defs><linearGradient id="grad2_2" x1="0%" y1="0%" x2="50%" y2="100%"><stop offset="10%" stop-color="#58be4c" stop-opacity="1"></stop><stop offset="90%" stop-color="#349e2e" stop-opacity="1"></stop></linearGradient></defs><defs><linearGradient id="grad2_3" x1="0%" y1="0%" x2="50%" y2="100%"><stop offset="10%" stop-color="#007f0b" stop-opacity="1"></stop><stop offset="90%" stop-color="#349e2e" stop-opacity="1"></stop></linearGradient></defs><defs><linearGradient id="grad2_4" x1="0%" y1="0%" x2="50%" y2="100%"><stop offset="10%" stop-color="#007f0b" stop-opacity="1"></stop><stop offset="90%" stop-color="#006200" stop-opacity="1"></stop></linearGradient></defs><defs><linearGradient id="grad2_5" x1="0%" y1="0%" x2="50%" y2="100%"><stop offset="10%" stop-color="#004500" stop-opacity="1"></stop><stop offset="90%" stop-color="#006200" stop-opacity="1"></stop></linearGradient></defs><defs><linearGradient id="grad2_6" x1="0%" y1="0%" x2="50%" y2="100%"><stop offset="10%" stop-color="#004500" stop-opacity="1"></stop><stop offset="90%" stop-color="#002b00" stop-opacity="1"></stop></linearGradient></defs><defs><linearGradient id="grad2_7" x1="0%" y1="0%" x2="50%" y2="100%"><stop offset="10%" stop-color="#000000" stop-opacity="1"></stop><stop offset="90%" stop-color="#002b00" stop-opacity="1"></stop></linearGradient></defs><g transform="translate(2000, 0)"><path d="M0 750C-53.2 705.1 -106.5 660.1 -175.2 653.9C-244 647.7 -328.3 680.3 -375 649.5C-421.7 618.8 -430.8 524.7 -469.5 469.5C-508.2 414.3 -576.5 398 -617.5 356.5C-658.5 315 -672.1 248.4 -689.7 184.8C-707.2 121.2 -728.6 60.6 -750 0L0 0Z" fill="#002300"></path><path d="M0 656.3C-46.6 616.9 -93.1 577.6 -153.3 572.2C-213.5 566.8 -287.3 595.2 -328.1 568.3C-369 541.4 -377 459.1 -410.8 410.8C-444.7 362.5 -504.4 348.2 -540.3 311.9C-576.1 275.6 -588.1 217.4 -603.5 161.7C-618.8 106 -637.5 53 -656.2 0L0 0Z" fill="#003700"></path><path d="M0 562.5C-39.9 528.8 -79.8 495.1 -131.4 490.4C-183 485.8 -246.2 510.2 -281.2 487.1C-316.3 464.1 -323.1 393.5 -352.1 352.1C-381.2 310.7 -432.4 298.5 -463.1 267.4C-493.8 236.3 -504.1 186.3 -517.3 138.6C-530.4 90.9 -546.5 45.4 -562.5 0L0 0Z" fill="#005300"></path><path d="M0 468.8C-33.3 440.7 -66.5 412.6 -109.5 408.7C-152.5 404.8 -205.2 425.2 -234.4 405.9C-263.6 386.7 -269.3 327.9 -293.4 293.4C-317.6 259 -360.3 248.7 -385.9 222.8C-411.5 196.9 -420.1 155.3 -431 115.5C-442 75.7 -455.4 37.9 -468.7 0L0 0Z" fill="#007000"></path><path d="M0 375C-26.6 352.5 -53.2 330.1 -87.6 327C-122 323.9 -164.1 340.1 -187.5 324.8C-210.9 309.4 -215.4 262.4 -234.8 234.8C-254.1 207.2 -288.2 199 -308.7 178.3C-329.2 157.5 -336.1 124.2 -344.8 92.4C-353.6 60.6 -364.3 30.3 -375 0L0 0Z" fill="#1e8e1e"></path><path d="M0 281.3C-20 264.4 -39.9 247.5 -65.7 245.2C-91.5 242.9 -123.1 255.1 -140.6 243.6C-158.1 232 -161.6 196.8 -176.1 176.1C-190.6 155.4 -216.2 149.2 -231.6 133.7C-246.9 118.1 -252.1 93.2 -258.6 69.3C-265.2 45.4 -273.2 22.7 -281.2 0L0 0Z" fill="#46ae3d"></path><path d="M0 187.5C-13.3 176.3 -26.6 165 -43.8 163.5C-61 161.9 -82.1 170.1 -93.7 162.4C-105.4 154.7 -107.7 131.2 -117.4 117.4C-127.1 103.6 -144.1 99.5 -154.4 89.1C-164.6 78.8 -168 62.1 -172.4 46.2C-176.8 30.3 -182.2 15.1 -187.5 0L0 0Z" fill="#68ce5b"></path><path d="M0 93.8C-6.7 88.1 -13.3 82.5 -21.9 81.7C-30.5 81 -41 85 -46.9 81.2C-52.7 77.3 -53.9 65.6 -58.7 58.7C-63.5 51.8 -72.1 49.7 -77.2 44.6C-82.3 39.4 -84 31.1 -86.2 23.1C-88.4 15.1 -91.1 7.6 -93.7 0L0 0Z" fill="#79de6a"></path></g><g transform="translate(0, 1000)"><path d="M0 -750C70.5 -754.6 141 -759.3 194.1 -724.4C247.2 -689.6 282.8 -615.4 329.5 -570.7C376.2 -526.1 433.9 -511 473.8 -473.8C513.6 -436.5 535.6 -377 562.9 -325C590.2 -273 622.8 -228.4 654.9 -175.5C687 -122.6 718.5 -61.3 750 0L0 0Z" fill="#002300"></path><path d="M0 -656.2C61.7 -660.3 123.4 -664.4 169.8 -633.9C216.3 -603.4 247.5 -538.4 288.3 -499.4C329.2 -460.3 379.7 -447.1 414.5 -414.5C449.4 -381.9 468.7 -329.9 492.6 -284.4C516.4 -238.9 545 -199.9 573 -153.5C601.1 -107.2 628.7 -53.6 656.3 0L0 0Z" fill="#003700"></path><path d="M0 -562.5C52.9 -566 105.8 -569.4 145.6 -543.3C185.4 -517.2 212.1 -461.5 247.1 -428C282.1 -394.5 325.4 -383.3 355.3 -355.3C385.2 -327.4 401.7 -282.8 422.2 -243.8C442.7 -204.7 467.1 -171.3 491.2 -131.6C515.2 -91.9 538.9 -46 562.5 0L0 0Z" fill="#005300"></path><path d="M0 -468.7C44.1 -471.6 88.1 -474.5 121.3 -452.8C154.5 -431 176.8 -384.6 205.9 -356.7C235.1 -328.8 271.2 -319.4 296.1 -296.1C321 -272.8 334.8 -235.6 351.8 -203.1C368.9 -170.6 389.3 -142.8 409.3 -109.7C429.4 -76.6 449.1 -38.3 468.8 0L0 0Z" fill="#007000"></path><path d="M0 -375C35.3 -377.3 70.5 -379.6 97.1 -362.2C123.6 -344.8 141.4 -307.7 164.7 -285.4C188.1 -263 217 -255.5 236.9 -236.9C256.8 -218.3 267.8 -188.5 281.5 -162.5C295.1 -136.5 311.4 -114.2 327.4 -87.7C343.5 -61.3 359.2 -30.6 375 0L0 0Z" fill="#1e8e1e"></path><path d="M0 -281.2C26.4 -283 52.9 -284.7 72.8 -271.7C92.7 -258.6 106.1 -230.8 123.6 -214C141.1 -197.3 162.7 -191.6 177.7 -177.7C192.6 -163.7 200.9 -141.4 211.1 -121.9C221.3 -102.4 233.6 -85.7 245.6 -65.8C257.6 -46 269.4 -23 281.3 0L0 0Z" fill="#46ae3d"></path><path d="M0 -187.5C17.6 -188.7 35.3 -189.8 48.5 -181.1C61.8 -172.4 70.7 -153.8 82.4 -142.7C94 -131.5 108.5 -127.8 118.4 -118.4C128.4 -109.1 133.9 -94.3 140.7 -81.3C147.6 -68.2 155.7 -57.1 163.7 -43.9C171.7 -30.6 179.6 -15.3 187.5 0L0 0Z" fill="#68ce5b"></path><path d="M0 -93.7C8.8 -94.3 17.6 -94.9 24.3 -90.6C30.9 -86.2 35.4 -76.9 41.2 -71.3C47 -65.8 54.2 -63.9 59.2 -59.2C64.2 -54.6 67 -47.1 70.4 -40.6C73.8 -34.1 77.9 -28.6 81.9 -21.9C85.9 -15.3 89.8 -7.7 93.8 0L0 0Z" fill="#79de6a"></path></g></svg>