<svg id="visual" viewBox="0 0 2000 1000" width="2000" height="1000" xmlns="http://www.w3.org/2000/svg" xmlns:xlink="http://www.w3.org/1999/xlink" version="1.1"><rect width="2000" height="1000" fill="#000000"></rect><g><g transform="translate(1639 246)"><path d="M0 -282.9L181.8 -216.7L278.6 -49.1L245 141.4L96.8 265.8L-96.8 265.8L-245 141.4L-278.6 -49.1L-181.8 -216.7Z" fill="none" stroke="#20E800" stroke-width="2"></path></g><g transform="translate(86 449)"><path d="M0 -277L178.1 -212.2L272.8 -48.1L239.9 138.5L94.7 260.3L-94.7 260.3L-239.9 138.5L-272.8 -48.1L-178.1 -212.2Z" fill="none" stroke="#20E800" stroke-width="2"></path></g><g transform="translate(1859 819)"><path d="M0 -173L111.2 -132.5L170.4 -30L149.8 86.5L59.2 162.6L-59.2 162.6L-149.8 86.5L-170.4 -30L-111.2 -132.5Z" fill="none" stroke="#20E800" stroke-width="2"></path></g></g></svg>