<svg id="visual" viewBox="0 0 2000 1000" width="2000" height="1000" xmlns="http://www.w3.org/2000/svg" xmlns:xlink="http://www.w3.org/1999/xlink" version="1.1"><rect x="0" y="0" width="2000" height="1000" fill="#FFFFFF"></rect><path d="M0 476L66.7 497.8C133.3 519.7 266.7 563.3 400 579.8C533.3 596.3 666.7 585.7 800 584.3C933.3 583 1066.7 591 1200 592.3C1333.3 593.7 1466.7 588.3 1600 565.8C1733.3 543.3 1866.7 503.7 1933.3 483.8L2000 464L2000 1001L1933.3 1001C1866.7 1001 1733.3 1001 1600 1001C1466.7 1001 1333.3 1001 1200 1001C1066.7 1001 933.3 1001 800 1001C666.7 1001 533.3 1001 400 1001C266.7 1001 133.3 1001 66.7 1001L0 1001Z" fill="#7ee06f" stroke-linecap="round" stroke-linejoin="miter"></path></svg>