<svg id="visual" viewBox="0 0 960 540" width="960" height="540" xmlns="http://www.w3.org/2000/svg" xmlns:xlink="http://www.w3.org/1999/xlink" version="1.1"><rect x="0" y="0" width="960" height="540" fill="#000000"></rect><path d="M0 89L17.8 86.7C35.7 84.3 71.3 79.7 106.8 76.5C142.3 73.3 177.7 71.7 213.2 73.2C248.7 74.7 284.3 79.3 320 80.3C355.7 81.3 391.3 78.7 426.8 80.7C462.3 82.7 497.7 89.3 533.2 88.3C568.7 87.3 604.3 78.7 640 74.2C675.7 69.7 711.3 69.3 746.8 71.7C782.3 74 817.7 79 853.2 83.5C888.7 88 924.3 92 942.2 94L960 96L960 0L942.2 0C924.3 0 888.7 0 853.2 0C817.7 0 782.3 0 746.8 0C711.3 0 675.7 0 640 0C604.3 0 568.7 0 533.2 0C497.7 0 462.3 0 426.8 0C391.3 0 355.7 0 320 0C284.3 0 248.7 0 213.2 0C177.7 0 142.3 0 106.8 0C71.3 0 35.7 0 17.8 0L0 0Z" fill="#ffffff" stroke-linecap="round" stroke-linejoin="miter"></path></svg>