<svg id="visual" viewBox="0 0 900 600" width="900" height="600" xmlns="http://www.w3.org/2000/svg" xmlns:xlink="http://www.w3.org/1999/xlink" version="1.1"><rect x="0" y="0" width="900" height="600" fill="#FFFFFF"></rect><path d="M0 399L30 387.8C60 376.7 120 354.3 180 342.8C240 331.3 300 330.7 360 336.8C420 343 480 356 540 368.3C600 380.7 660 392.3 720 396.8C780 401.3 840 398.7 870 397.3L900 396L900 601L870 601C840 601 780 601 720 601C660 601 600 601 540 601C480 601 420 601 360 601C300 601 240 601 180 601C120 601 60 601 30 601L0 601Z" fill="#8fd3c4" stroke-linecap="round" stroke-linejoin="miter"></path></svg>