<svg id="visual" viewBox="0 0 960 540" width="960" height="540" xmlns="http://www.w3.org/2000/svg" xmlns:xlink="http://www.w3.org/1999/xlink" version="1.1"><rect x="0" y="0" width="960" height="540" fill="#ffffff"></rect><path d="M0 267L6.7 256.8C13.3 246.7 26.7 226.3 40 218.5C53.3 210.7 66.7 215.3 80 224.8C93.3 234.3 106.7 248.7 120 254.3C133.3 260 146.7 257 160 259.3C173.3 261.7 186.7 269.3 200 260.2C213.3 251 226.7 225 240 222.3C253.3 219.7 266.7 240.3 280 246.2C293.3 252 306.7 243 320 243.2C333.3 243.3 346.7 252.7 360 251.2C373.3 249.7 386.7 237.3 400 235.2C413.3 233 426.7 241 440 246.8C453.3 252.7 466.7 256.3 480 256.3C493.3 256.3 506.7 252.7 520 248.5C533.3 244.3 546.7 239.7 560 233.3C573.3 227 586.7 219 600 218C613.3 217 626.7 223 640 233.2C653.3 243.3 666.7 257.7 680 257.3C693.3 257 706.7 242 720 232.8C733.3 223.7 746.7 220.3 760 230.2C773.3 240 786.7 263 800 271.2C813.3 279.3 826.7 272.7 840 270.5C853.3 268.3 866.7 270.7 880 261.7C893.3 252.7 906.7 232.3 920 224.7C933.3 217 946.7 222 953.3 224.5L960 227L960 0L953.3 0C946.7 0 933.3 0 920 0C906.7 0 893.3 0 880 0C866.7 0 853.3 0 840 0C826.7 0 813.3 0 800 0C786.7 0 773.3 0 760 0C746.7 0 733.3 0 720 0C706.7 0 693.3 0 680 0C666.7 0 653.3 0 640 0C626.7 0 613.3 0 600 0C586.7 0 573.3 0 560 0C546.7 0 533.3 0 520 0C506.7 0 493.3 0 480 0C466.7 0 453.3 0 440 0C426.7 0 413.3 0 400 0C386.7 0 373.3 0 360 0C346.7 0 333.3 0 320 0C306.7 0 293.3 0 280 0C266.7 0 253.3 0 240 0C226.7 0 213.3 0 200 0C186.7 0 173.3 0 160 0C146.7 0 133.3 0 120 0C106.7 0 93.3 0 80 0C66.7 0 53.3 0 40 0C26.7 0 13.3 0 6.7 0L0 0Z" fill="#000000" stroke-linecap="round" stroke-linejoin="miter"></path></svg>