<svg id="visual" viewBox="0 0 900 450" width="900" height="450" xmlns="http://www.w3.org/2000/svg" xmlns:xlink="http://www.w3.org/1999/xlink" version="1.1"><rect x="0" y="0" width="900" height="450" fill="#000000"></rect><path d="M0 192L8.3 197.7C16.7 203.3 33.3 214.7 50 220.8C66.7 227 83.3 228 100 216.8C116.7 205.7 133.3 182.3 150 168.8C166.7 155.3 183.3 151.7 200 163.8C216.7 176 233.3 204 250 205.8C266.7 207.7 283.3 183.3 300 173.2C316.7 163 333.3 167 350 168.3C366.7 169.7 383.3 168.3 400 169.3C416.7 170.3 433.3 173.7 450 182.8C466.7 192 483.3 207 500 214.3C516.7 221.7 533.3 221.3 550 216.3C566.7 211.3 583.3 201.7 600 194.7C616.7 187.7 633.3 183.3 650 182.5C666.7 181.7 683.3 184.3 700 175.8C716.7 167.3 733.3 147.7 750 140C766.7 132.3 783.3 136.7 800 142.2C816.7 147.7 833.3 154.3 850 162.8C866.7 171.3 883.3 181.7 891.7 186.8L900 192" fill="none" stroke-linecap="round" stroke-linejoin="miter" stroke="#2aff32" stroke-width="1"></path></svg>